#!OML:ASF H:\Dans Jumps\Project 1\Capture day 1\Session 1\subject.ASF
:FULLY-SPECIFIED
:DEGREES
122
root 0.685902 17.5283 -13.9846 5.91527 -1.87177 -1.80783
lowerback -3.19965 -0.510485 0.348826
upperback 2.53826 -0.780924 1.97107
thorax 4.43735 -0.410833 1.78589
lowerneck -14.5621 0.197331 -2.27816
upperneck 25.3198 0.749951 0.427383
head 10.5089 0.171689 0.637754
rclavicle -6.01324e-015 1.03368e-014
rhumerus -25.5609 -15.9976 -78.2969
rradius 24.5356
rwrist 32.3127
rhand -19.2996 -26.1132
rfingers 7.12502
rthumb 7.01591 -55.9769
lclavicle -6.01324e-015 1.03368e-014
lhumerus -22.1783 -2.60868 87.7487
lradius 19.581
lwrist 3.74444
lhand -23.5574 -3.20185
lfingers 7.12502
lthumb 2.90481 26.7581
rfemur -11.6526 -3.35802 20.1694
rtibia 20.7178
rfoot -13.8628 -1.77204
rtoes 12.8655
lfemur -11.3938 7.77633 -18.0178
ltibia 19.3835
lfoot -11.7251 5.92883
ltoes -3.91216
123
root 0.686891 17.5281 -13.9854 5.91304 -1.87544 -1.80743
lowerback -3.18579 -0.511284 0.34153
upperback 2.54272 -0.781528 1.97202
thorax 4.43424 -0.411391 1.79102
lowerneck -14.5479 0.198748 -2.28316
upperneck 25.3132 0.75124 0.433098
head 10.5037 0.172549 0.640717
rclavicle 2.22639e-014 -1.98785e-015
rhumerus -25.5582 -15.9628 -78.3121
rradius 24.5539
rwrist 32.2926
rhand -19.3137 -26.0864
rfingers 7.12502
rthumb 7.00233 -55.9506
lclavicle 2.22639e-014 -1.98785e-015
lhumerus -22.1716 -2.6211 87.757
lradius 19.5903
lwrist 3.76749
lhand -23.5575 -3.18446
lfingers 7.12502
lthumb 2.90469 26.7755
rfemur -11.6569 -3.34926 20.1655
rtibia 20.7247
rfoot -13.8631 -1.7792
rtoes 12.8618
lfemur -11.3979 7.77743 -18.0219
ltibia 19.3906
lfoot -11.726 5.92907
ltoes -3.90711
124
root 0.687825 17.528 -13.9864 5.91391 -1.87917 -1.80878
lowerback -3.17195 -0.512056 0.335209
upperback 2.54568 -0.782148 1.97366
thorax 4.42959 -0.411929 1.79632
lowerneck -14.5398 0.201463 -2.28635
upperneck 25.3126 0.753807 0.439883
head 10.5017 0.174234 0.643979
rclavicle 1.59028e-015 5.96354e-015
rhumerus -25.5555 -15.9231 -78.3289
rradius 24.5739
rwrist 32.2642
rhand -19.3238 -26.0738
rfingers 7.12502
rthumb 6.99259 -55.9383
lclavicle 1.59028e-015 5.96354e-015
lhumerus -22.1647 -2.63858 87.7657
lradius 19.5995
lwrist 3.79603
lhand -23.5519 -3.16616
lfingers 7.12502
lthumb 2.91014 26.7937
rfemur -11.6659 -3.3386 20.1637
rtibia 20.7329
rfoot -13.863 -1.78583
rtoes 12.8763
lfemur -11.4062 7.77644 -18.0242
ltibia 19.3977
lfoot -11.7251 5.93118
ltoes -3.90648
125
root 0.688728 17.5279 -13.9875 5.91791 -1.88322 -1.81014
lowerback -3.15904 -0.51279 0.328929
upperback 2.54774 -0.782714 1.97528
thorax 4.42452 -0.412434 1.80157
lowerneck -14.5397 0.205087 -2.28626
upperneck 25.318 0.7576 0.4447
head 10.5036 0.176492 0.646207
rclavicle -2.28602e-015 -1.43125e-014
rhumerus -25.5505 -15.8871 -78.3445
rradius 24.5914
rwrist 32.2335
rhand -19.3231 -26.0643
rfingers 7.12502
rthumb 6.99323 -55.9288
lclavicle -2.28602e-015 -1.43125e-014
lhumerus -22.1588 -2.65604 87.7738
lradius 19.6108
lwrist 3.82406
lhand -23.5499 -3.1571
lfingers 7.12502
lthumb 2.912 26.8028
rfemur -11.6798 -3.32471 20.162
rtibia 20.7419
rfoot -13.8609 -1.79362
rtoes 12.8978
lfemur -11.4191 7.77442 -18.027
ltibia 19.4052
lfoot -11.7228 5.93411
ltoes -3.90763
126
root 0.689607 17.5279 -13.9887 5.92442 -1.88531 -1.81162
lowerback -3.14557 -0.513369 0.323546
upperback 2.54804 -0.783056 1.97637
thorax 4.41729 -0.412778 1.80579
lowerneck -14.5434 0.208419 -2.28052
upperneck 25.3275 0.760832 0.445102
head 10.5077 0.178464 0.645868
rclavicle 2.98177e-016 1.59028e-015
rhumerus -25.5469 -15.8571 -78.3581
rradius 24.6062
rwrist 32.2093
rhand -19.3277 -26.0501
rfingers 7.12502
rthumb 6.98885 -55.9148
lclavicle 2.98177e-016 1.59028e-015
lhumerus -22.1545 -2.67678 87.7816
lradius 19.6228
lwrist 3.85016
lhand -23.5414 -3.14347
lfingers 7.12502
lthumb 2.92025 26.8163
rfemur -11.6966 -3.31198 20.1609
rtibia 20.75
rfoot -13.8565 -1.80253
rtoes 12.9088
lfemur -11.4364 7.77167 -18.0301
ltibia 19.4145
lfoot -11.7206 5.93558
ltoes -3.90591
127
root 0.690472 17.5278 -13.99 5.93283 -1.88802 -1.81277
lowerback -3.13111 -0.513985 0.317582
upperback 2.54731 -0.783399 1.97789
thorax 4.40843 -0.413139 1.81077
lowerneck -14.551 0.213185 -2.27395
upperneck 25.341 0.76639 0.444119
head 10.5141 0.181373 0.645239
rclavicle 3.27995e-015 7.95139e-016
rhumerus -25.5442 -15.8237 -78.3715
rradius 24.6239
rwrist 32.1773
rhand -19.3293 -26.0396
rfingers 7.12502
rthumb 6.98725 -55.9043
lclavicle 3.27995e-015 7.95139e-016
lhumerus -22.1516 -2.69783 87.7898
lradius 19.6358
lwrist 3.87338
lhand -23.534 -3.13624
lfingers 7.12502
lthumb 2.92738 26.8234
rfemur -11.7158 -3.2972 20.1598
rtibia 20.7568
rfoot -13.8493 -1.81462
rtoes 12.8993
lfemur -11.4576 7.76894 -18.0337
ltibia 19.4266
lfoot -11.7194 5.93666
ltoes -3.89374
